<?xml version="1.0" encoding="UTF-8"?>
<svg version="1.1" xmlns="http://www.w3.org/2000/svg" width="1024" height="1024">
<path d="M0 0 C1.60337963 0.74134237 3.20689837 1.48238396 4.81054688 2.22314453 C5.61451904 2.59997375 6.41849121 2.97680298 7.24682617 3.36505127 C10.7782936 5.00898822 14.34165436 6.57800216 17.90625 8.1484375 C19.29056775 8.76256307 20.67467969 9.37715275 22.05859375 9.9921875 C23.10732666 10.45794189 23.10732666 10.45794189 24.17724609 10.93310547 C38.46052606 17.27732358 52.73320369 23.64480731 66.99636841 30.03411865 C75.58371982 33.88080482 84.17393033 37.72060016 92.77734375 41.53125 C95.78389228 42.86319525 98.79043313 44.19515775 101.796875 45.52734375 C102.53312103 45.85357727 103.26936707 46.17981079 104.02792358 46.51593018 C116.10577362 51.87152996 128.13091486 57.33684485 140.13421631 62.85733032 C150.25589888 67.51183185 160.40922217 72.06914841 170.68676758 76.37255859 C182.09352332 81.21551544 182.09352332 81.21551544 185.546875 86.33984375 C186.85252774 90.17999886 186.96506467 91.62372303 185.609375 95.46484375 C181.95437837 101.12113537 177.36134263 105.85370537 172.55078125 110.52734375 C170.77777399 112.29678359 169.15997665 114.11307478 167.546875 116.02734375 C148.21758673 138.18100291 148.21758673 138.18100291 136.609375 140.46484375 C133.94040706 140.53752642 131.27998646 140.48959218 128.609375 140.46484375 C126.22790892 149.31727868 123.85349632 158.17159772 121.484375 167.02734375 C121.21663458 168.02810503 121.21663458 168.02810503 120.94348526 169.04908371 C114.80950117 191.98514516 108.85249229 214.96070506 103.04052734 237.98071289 C102.76331345 239.07810791 102.48609955 240.17550293 102.20048523 241.30615234 C101.69083288 243.32562553 101.18226886 245.34537389 100.67512512 247.36547852 C99.25851784 252.98742548 97.75926944 258.5770973 96.16743469 264.15220642 C95.49208713 266.55438983 95.49208713 266.55438983 95.609375 269.46484375 C96.599375 269.79484375 97.589375 270.12484375 98.609375 270.46484375 C100.22265625 272.06640625 100.22265625 272.06640625 101.921875 274.08984375 C104.46211311 277.12530018 104.46211311 277.12530018 107.1171875 280.05859375 C122.08616276 296.09093884 127.38571683 318.79665854 126.8671875 340.171875 C126.33345491 351.72260307 125.29903541 367.4525046 118.296875 377.02734375 C115.15396495 379.87789007 113.77844186 380.16506135 109.609375 380.46484375 C98.61029163 377.92022476 87.93093499 372.20042317 77.66314697 367.59674072 C72.88184199 365.45333969 68.09317103 363.32652296 63.3046875 361.19921875 C61.89888931 360.57413925 61.89888931 360.57413925 60.46469116 359.93643188 C53.25537716 356.73661093 46.01308051 353.62895097 38.734375 350.58984375 C24.90792236 344.81194734 11.25886186 338.64666583 -2.390625 332.46484375 C-7.33336854 338.63603329 -11.86324014 344.98329903 -16.203125 351.58984375 C-17.33454734 353.30083949 -18.46606015 355.01177542 -19.59765625 356.72265625 C-20.49436035 358.08136841 -20.49436035 358.08136841 -21.40917969 359.4675293 C-28.55576665 370.27810694 -35.78759899 381.02983238 -43.06036377 391.75582886 C-50.41978846 402.61100343 -57.75727845 413.47923937 -65.015625 424.40234375 C-71.17843486 433.67412308 -77.4316212 442.87931689 -83.73681641 452.0546875 C-86.71399105 456.3934339 -89.67702867 460.74181627 -92.640625 465.08984375 C-93.57056274 466.45387329 -93.57056274 466.45387329 -94.51928711 467.84545898 C-98.63074248 473.87787037 -102.73670605 479.91399867 -106.84008789 485.9519043 C-108.9872853 489.11065313 -111.13615844 492.26825711 -113.28515625 495.42578125 C-115.93611681 499.32165429 -118.57895747 503.22282093 -121.21484375 507.12890625 C-122.37754776 508.8450903 -123.54030495 510.56123832 -124.703125 512.27734375 C-125.22406738 513.05360107 -125.74500977 513.8298584 -126.28173828 514.62963867 C-131.13061892 521.76786644 -131.13061892 521.76786644 -134.390625 524.46484375 C-137.70186132 524.94773238 -139.687174 524.76103364 -142.765625 523.46484375 C-144.81600695 520.94129673 -144.73458158 519.09825376 -144.66271973 515.92068481 C-144.10601782 510.89606924 -142.41982559 506.16097673 -140.875 501.3671875 C-140.50819122 500.19749924 -140.14138245 499.02781097 -139.76345825 497.82267761 C-138.97573292 495.31583983 -138.18412287 492.81067923 -137.38519287 490.30743408 C-136.12457162 486.35741099 -134.87960938 482.40256267 -133.63720703 478.44677734 C-132.18273364 473.81889018 -130.7250607 469.19204164 -129.26233101 464.5667572 C-126.449402 455.67103151 -123.6862763 446.76083091 -120.9546814 437.83984375 C-120.01834825 434.7824023 -119.07899398 431.72589191 -118.13975525 428.66934204 C-117.65740261 427.09954184 -117.17519505 425.52969705 -116.69313049 423.95980835 C-114.72176936 417.5399363 -112.74611641 411.12139036 -110.76953125 404.703125 C-103.58177879 381.36189672 -96.40488241 358.01733259 -89.2427063 334.66824341 C-88.38612665 331.87584664 -87.52907026 329.0835969 -86.67160034 326.29147339 C-85.47388593 322.39129494 -84.27787064 318.49059751 -83.08203125 314.58984375 C-82.72239288 313.41942032 -82.36275452 312.24899689 -81.99221802 311.04310608 C-81.66293304 309.96798264 -81.33364807 308.89285919 -80.99438477 307.78515625 C-80.7073317 306.84945801 -80.42027863 305.91375977 -80.12452698 304.94970703 C-79.4889452 302.79773868 -78.9136542 300.64647781 -78.390625 298.46484375 C-79.6178125 298.08457031 -80.845 297.70429687 -82.109375 297.3125 C-88.22938437 295.26734135 -94.02737143 292.58230051 -99.890625 289.90234375 C-102.46478796 288.73526947 -105.04086095 287.57244543 -107.6171875 286.41015625 C-108.30402618 286.09998062 -108.99086487 285.78980499 -109.69851685 285.4702301 C-117.97100484 281.74106461 -126.27999548 278.09510736 -134.59024048 274.4510498 C-137.25518033 273.28192589 -139.91905286 272.11039759 -142.58276367 270.93847656 C-150.02857548 267.66610815 -157.47749582 264.40897883 -164.98046875 261.26953125 C-166.05635254 260.81602295 -167.13223633 260.36251465 -168.24072266 259.89526367 C-170.13766811 259.09937202 -172.03934043 258.31459843 -173.94677734 257.54418945 C-178.63513891 255.57173209 -181.60944874 253.93668242 -184.390625 249.46484375 C-185.69244274 246.16690548 -185.47859668 244.73975525 -184.390625 241.33984375 C-180.0655805 232.37943767 -174.32772265 224.94221463 -167.52734375 217.77734375 C-165.27389412 215.46010413 -165.27389412 215.46010413 -163.390625 212.46484375 C-162.730625 212.46484375 -162.070625 212.46484375 -161.390625 212.46484375 C-161.390625 211.80484375 -161.390625 211.14484375 -161.390625 210.46484375 C-146.80276599 196.11515387 -126.20974075 186.51457586 -105.640625 186.21484375 C-102.12841443 186.38565593 -98.62859816 186.68452449 -95.125 186.98046875 C-94.04959961 187.07102539 -92.97419922 187.16158203 -91.86621094 187.25488281 C-91.04926758 187.32416992 -90.23232422 187.39345703 -89.390625 187.46484375 C-89.07536865 186.954375 -88.7601123 186.44390625 -88.43530273 185.91796875 C-81.94755068 175.41653834 -75.43897657 164.92860813 -68.890625 154.46484375 C-64.20456042 146.97672215 -59.53428474 139.47933746 -54.890625 131.96484375 C-50.87812065 125.47170248 -46.84989056 118.98879069 -42.80053711 112.51855469 C-41.5362276 110.49708168 -40.27398915 108.47431175 -39.01391602 106.45019531 C-35.87587474 101.41260835 -32.70911113 96.39805456 -29.48046875 91.41796875 C-28.86558594 90.45761719 -28.25070312 89.49726563 -27.6171875 88.5078125 C-26.44914943 86.68434695 -25.26865425 84.86878441 -24.07421875 83.0625 C-23.30078125 81.84626953 -23.30078125 81.84626953 -22.51171875 80.60546875 C-21.82227173 79.54634277 -21.82227173 79.54634277 -21.11889648 78.46582031 C-20.13788639 76.44315664 -20.13788639 76.44315664 -21.1796875 74.34472656 C-21.57929688 73.72436523 -21.97890625 73.10400391 -22.390625 72.46484375 C-22.80441406 71.73265625 -23.21820313 71.00046875 -23.64453125 70.24609375 C-24.51757256 68.72413517 -25.3925769 67.20330099 -26.26953125 65.68359375 C-31.29444899 55.73880882 -28.28558704 40.94979319 -27.21875 30.15576172 C-27.0137512 28.07078589 -26.82261871 25.98484574 -26.6328125 23.8984375 C-24.73278192 3.6498784 -24.73278192 3.6498784 -19.390625 -1.53515625 C-13.1332243 -6.06637745 -6.17062508 -2.96152305 0 0 Z M-11.390625 10.46484375 C-11.87190747 14.25624491 -12.35025627 18.04801093 -12.828125 21.83984375 C-12.96283203 22.90074219 -13.09753906 23.96164063 -13.23632812 25.0546875 C-16.86084512 44.26729794 -16.86084512 44.26729794 -12.390625 62.46484375 C-8.07903931 66.43970118 -3.92987964 68.87871205 1.4375 71.171875 C2.55931671 71.66550789 2.55931671 71.66550789 3.70379639 72.16911316 C6.08504462 73.21449888 8.47192104 74.24622148 10.859375 75.27734375 C12.41446454 75.95676282 13.96915542 76.63709513 15.5234375 77.31835938 C18.65720721 78.69071667 21.79297397 80.05835946 24.93017578 81.42285156 C31.7118506 84.37677558 38.46719856 87.38969934 45.22338867 90.40133667 C49.51020372 92.31210125 53.7981302 94.22036959 58.0859375 96.12890625 C58.98506866 96.52912994 59.88419983 96.92935364 60.81057739 97.34170532 C77.60245273 104.81512971 94.39837535 112.27875031 111.234375 119.65234375 C111.90881653 119.94820374 112.58325806 120.24406372 113.27813721 120.54888916 C115.15091211 121.37003382 117.02464778 122.18898622 118.8984375 123.0078125 C119.93693848 123.4618042 120.97543945 123.9157959 122.04541016 124.38354492 C125.43555326 125.81326724 128.25835192 126.65712451 131.921875 126.77734375 C133.02982422 126.83341797 133.02982422 126.83341797 134.16015625 126.890625 C140.98338612 125.70444947 145.91618739 119.42876984 150.546875 114.71484375 C151.22427734 114.03679687 151.90167969 113.35875 152.59960938 112.66015625 C159.19408836 106.00877381 165.29937447 99.18848088 170.609375 91.46484375 C164.22233253 88.21822359 157.75137819 85.19091377 151.234375 82.21484375 C150.27660156 81.77527344 149.31882812 81.33570313 148.33203125 80.8828125 C139.1241834 76.66905162 129.86730912 72.5669618 120.609375 68.46484375 C98.24566813 58.55248181 75.8902515 48.62485828 53.609375 38.52734375 C52.73897583 38.13289063 51.86857666 37.7384375 50.97180176 37.33203125 C47.56750552 35.78909401 44.16326082 34.24604312 40.75909424 32.70281982 C33.56993722 29.44469652 26.37536343 26.19877071 19.17431641 22.9670105 C17.45308123 22.19440536 15.73238433 21.42060137 14.01171875 20.64672852 C8.33458093 18.10172923 2.64420186 15.58733805 -3.0625 13.109375 C-4.22362305 12.6038208 -5.38474609 12.0982666 -6.58105469 11.57739258 C-9.19690625 10.34212019 -9.19690625 10.34212019 -11.390625 10.46484375 Z M-7.390625 81.46484375 C-8.92762813 83.49443612 -10.32367459 85.51773162 -11.703125 87.65234375 C-12.13971436 88.3179834 -12.57630371 88.98362305 -13.02612305 89.66943359 C-18.41211574 97.93919813 -23.56653972 106.35578014 -28.73046875 114.76513672 C-30.85192159 118.21499341 -32.9855104 121.65724186 -35.11987305 125.09912109 C-40.56243451 133.87603825 -45.98046028 142.66792752 -51.390625 151.46484375 C-56.46785174 159.71861687 -61.54691481 167.97123001 -66.640625 176.21484375 C-67.42759766 177.49101562 -67.42759766 177.49101562 -68.23046875 178.79296875 C-70.34564801 182.21278614 -72.46885406 185.60611239 -74.75 188.91796875 C-76.57113812 191.24014252 -76.57113812 191.24014252 -76.390625 193.46484375 C-72.4957062 195.25850334 -68.59953263 197.04942095 -64.703125 198.83984375 C-63.04893555 199.60167969 -63.04893555 199.60167969 -61.36132812 200.37890625 C-60.29462891 200.86875 -59.22792969 201.35859375 -58.12890625 201.86328125 C-57.14962158 202.31364746 -56.17033691 202.76401367 -55.16137695 203.22802734 C-52.59285419 204.37457209 -50.00425766 205.42650508 -47.390625 206.46484375 C-45.70072318 207.19724149 -44.0147458 207.93873679 -42.33203125 208.6875 C-41.32672363 209.13448242 -40.32141602 209.58146484 -39.28564453 210.04199219 C-38.18591309 210.5321582 -37.08618164 211.02232422 -35.953125 211.52734375 C-34.19137939 212.31093262 -34.19137939 212.31093262 -32.39404297 213.11035156 C-25.40889493 216.21878356 -18.43084822 219.3427981 -11.45703125 222.4765625 C6.1589341 230.38875726 23.81059272 238.20322894 41.55175781 245.83105469 C48.50968559 248.8233256 55.46082379 251.82666936 62.37890625 254.91015625 C63.54832764 255.4304541 64.71774902 255.95075195 65.92260742 256.48681641 C68.0642455 257.44262009 70.20388034 258.40293064 72.34106445 259.36865234 C73.73071411 259.98861084 73.73071411 259.98861084 75.1484375 260.62109375 C75.94459473 260.98009766 76.74075195 261.33910156 77.56103516 261.70898438 C79.71456501 262.63793995 79.71456501 262.63793995 82.609375 262.46484375 C88.16417941 243.7136827 93.00011742 224.77777788 97.88458252 205.84411621 C99.62772378 199.08841972 101.37437436 192.3336306 103.12260818 185.57925034 C103.54701311 183.93911587 103.97114605 182.298911 104.39500046 180.65863419 C106.49166826 172.54649213 108.60075405 164.43876121 110.79736328 156.35302734 C111.12781143 155.13661057 111.45825958 153.92019379 111.79872131 152.66691589 C112.40621487 150.44247823 113.01732761 148.21902441 113.63279724 145.9967804 C113.89649612 145.03451035 114.16019501 144.0722403 114.43188477 143.08081055 C114.77570946 141.84103706 114.77570946 141.84103706 115.1264801 140.57621765 C115.72085215 138.33841127 115.72085215 138.33841127 115.609375 135.46484375 C92.81860412 124.53556011 69.58422942 114.56120835 46.43530273 104.42089844 C37.62644831 100.56004306 28.82719337 96.67927473 20.046875 92.75390625 C18.78719154 92.19129089 18.78719154 92.19129089 17.50205994 91.61730957 C13.499933 89.82941428 9.4996425 88.03759613 5.50219727 86.23925781 C4.08095475 85.6033752 2.65965289 84.96762519 1.23828125 84.33203125 C0.26791931 83.89281845 0.26791931 83.89281845 -0.7220459 83.44473267 C-3.93110296 81.94435716 -3.93110296 81.94435716 -7.390625 81.46484375 Z M-158.61328125 227.2109375 C-161.30276744 230.56049181 -163.86235029 233.99238149 -166.390625 237.46484375 C-166.98488281 238.19703125 -167.57914062 238.92921875 -168.19140625 239.68359375 C-169.66986133 241.52171878 -169.66986133 241.52171878 -169.390625 244.46484375 C-141.34650828 257.08695425 -113.21601571 269.50533925 -85.01608276 281.77520752 C-71.85137447 287.5046076 -58.70859382 293.28242296 -45.578125 299.08984375 C-44.67479431 299.48935242 -43.77146362 299.88886108 -42.84075928 300.30047607 C-37.52385317 302.65222807 -32.20742445 305.0050578 -26.89111328 307.3581543 C-8.69253199 315.41265234 9.51269961 323.44713268 27.78344727 331.33691406 C36.8711856 335.26412414 45.93660975 339.24082993 54.99731445 343.22998047 C62.75220327 346.6440758 70.51220931 350.04646523 78.27478027 353.4430542 C79.78842006 354.10553377 81.30186029 354.76846956 82.81506348 355.4319458 C87.19855554 357.35357916 91.58885725 359.25837603 95.984375 361.15234375 C97.04108398 361.61592285 98.09779297 362.07950195 99.18652344 362.55712891 C100.13817383 362.96366699 101.08982422 363.37020508 102.0703125 363.7890625 C102.88290527 364.14057373 103.69549805 364.49208496 104.53271484 364.85424805 C106.77276944 365.72759925 106.77276944 365.72759925 109.609375 364.46484375 C114.69263686 342.50131609 116.01228892 319.6196246 104.78515625 299.13671875 C93.25613442 281.10705004 76.1977861 273.99420081 57.234375 265.83984375 C55.41103056 265.04856791 53.58803754 264.25648183 51.76538086 263.46362305 C48.10324077 261.87174424 44.43941238 260.28386457 40.77392578 258.69970703 C34.2078384 255.86081354 27.6542649 252.99357378 21.1020813 250.12277222 C19.15945863 249.27190539 17.21639047 248.42206378 15.27319336 247.57250977 C5.94010883 243.49142034 -3.38371431 239.38955346 -12.703125 235.27734375 C-13.38773804 234.97536072 -14.07235107 234.67337769 -14.77770996 234.36224365 C-22.750138 230.8452701 -30.71907578 227.32054053 -38.68336487 223.78517151 C-42.53507558 222.07573173 -46.38767744 220.36830525 -50.24032593 218.66098022 C-52.10293748 217.83486436 -53.96511466 217.00776831 -55.82681274 216.17959595 C-93.46672916 199.43624162 -128.40121088 191.02530718 -158.61328125 227.2109375 Z M-65.390625 304.46484375 C-68.77952472 312.42835717 -71.39460767 320.56869078 -73.91796875 328.83984375 C-74.34725481 330.2357114 -74.77692621 331.63146059 -75.20695496 333.02709961 C-76.34940275 336.73832561 -77.48684434 340.45106788 -78.62332916 344.16412354 C-79.80747928 348.02963746 -80.99640828 351.8936805 -82.18505859 355.7578125 C-83.8391718 361.13622973 -85.4920663 366.51501782 -87.14315796 371.8943634 C-90.32488035 382.25985723 -93.52879691 392.61837958 -96.7427063 402.97393799 C-101.43756828 418.1041952 -106.09034088 433.24700771 -110.70361328 448.40234375 C-110.91212921 449.08649353 -111.12064514 449.77064331 -111.33547974 450.4755249 C-111.74253504 451.81231713 -112.14854586 453.14942792 -112.55343628 454.48687744 C-113.61522085 457.98143363 -114.7098718 461.4619991 -115.84765625 464.93261719 C-116.20331665 466.02985611 -116.20331665 466.02985611 -116.56616211 467.14926147 C-117.02175738 468.55065423 -117.4844659 469.94976072 -117.95532227 471.34609985 C-119.26887307 475.36615405 -119.26887307 475.36615405 -118.390625 479.46484375 C-111.52491273 469.4708421 -104.68083878 459.46644492 -98 449.34765625 C-95.79679512 446.03920275 -93.52805533 442.77837722 -91.2578125 439.515625 C-86.46519584 432.61861314 -81.80925422 425.63375186 -77.16534424 418.63607788 C-69.61709429 407.26433142 -62.03156674 395.92135817 -54.31005859 384.66625977 C-51.43936344 380.48058162 -48.59618118 376.27941604 -45.7890625 372.05078125 C-42.28054177 366.77367965 -38.7164458 361.53637077 -35.140625 356.3046875 C-33.46185154 353.84225308 -31.78378149 351.37934088 -30.10595703 348.91625977 C-28.95034934 347.2226514 -27.79242285 345.53062318 -26.63232422 343.84008789 C-24.94114741 341.37428115 -23.25883498 338.90263608 -21.578125 336.4296875 C-21.05637695 335.67348618 -20.53462891 334.91728485 -19.99707031 334.13816833 C-19.52237305 333.43635941 -19.04767578 332.73455048 -18.55859375 332.01147461 C-18.13860107 331.39702988 -17.7186084 330.78258514 -17.28588867 330.14952087 C-16.15599037 328.34127993 -16.15599037 328.34127993 -16.390625 325.46484375 C-22.08194002 322.95349751 -27.77452088 320.44505055 -33.46826172 317.93920898 C-35.40252638 317.08745384 -37.336451 316.23492605 -39.27001953 315.3815918 C-42.05931641 314.15076605 -44.84984957 312.92278147 -47.640625 311.6953125 C-48.49615967 311.31706833 -49.35169434 310.93882416 -50.2331543 310.54911804 C-55.23360116 308.35356406 -60.25922298 306.33480527 -65.390625 304.46484375 Z M-120.390625 479.46484375 C-119.390625 481.46484375 -119.390625 481.46484375 -119.390625 481.46484375 Z " fill="#FEFEFE" transform="translate(528.390625,228.53515625)"/>
<path d="M0 0 C0.99 0.495 0.99 0.495 2 1 C1.67 1.66 1.34 2.32 1 3 C0.67 2.01 0.34 1.02 0 0 Z " fill="#FDFEFE" transform="translate(641,364)"/>
<path d="M0 0 C3 1 3 1 3 1 Z " fill="#FBFDFD" transform="translate(420,430)"/>
<path d="" fill="#FCFDFE" transform="translate(0,0)"/>
<path d="" fill="#FDFDFE" transform="translate(0,0)"/>
<path d="M0 0 C2 1 2 1 2 1 Z " fill="#FDFEFE" transform="translate(509,555)"/>
<path d="" fill="#FCFDFF" transform="translate(0,0)"/>
<path d="" fill="#FDFFFF" transform="translate(0,0)"/>
<path d="" fill="#67686B" transform="translate(0,0)"/>
<path d="" fill="#696C6C" transform="translate(0,0)"/>
<path d="" fill="#6D7072" transform="translate(0,0)"/>
<path d="" fill="#717273" transform="translate(0,0)"/>
<path d="" fill="#6F7273" transform="translate(0,0)"/>
<path d="" fill="#727374" transform="translate(0,0)"/>
<path d="" fill="#717373" transform="translate(0,0)"/>
<path d="" fill="#717274" transform="translate(0,0)"/>
<path d="" fill="#6D6F70" transform="translate(0,0)"/>
<path d="" fill="#6A6C6C" transform="translate(0,0)"/>
<path d="" fill="#676869" transform="translate(0,0)"/>
<path d="" fill="#686B6C" transform="translate(0,0)"/>
<path d="" fill="#717172" transform="translate(0,0)"/>
<path d="" fill="#727276" transform="translate(0,0)"/>
<path d="" fill="#676A69" transform="translate(0,0)"/>
<path d="" fill="#66696A" transform="translate(0,0)"/>
<path d="" fill="#6B6C6E" transform="translate(0,0)"/>
<path d="" fill="#707072" transform="translate(0,0)"/>
<path d="" fill="#6D6E6F" transform="translate(0,0)"/>
<path d="" fill="#707173" transform="translate(0,0)"/>
<path d="" fill="#6F7172" transform="translate(0,0)"/>
<path d="" fill="#6E6E72" transform="translate(0,0)"/>
<path d="" fill="#6E7172" transform="translate(0,0)"/>
<path d="" fill="#6D6F72" transform="translate(0,0)"/>
<path d="" fill="#727475" transform="translate(0,0)"/>
<path d="" fill="#737476" transform="translate(0,0)"/>
<path d="" fill="#737576" transform="translate(0,0)"/>
<path d="" fill="#646869" transform="translate(0,0)"/>
<path d="" fill="#666769" transform="translate(0,0)"/>
<path d="" fill="#666867" transform="translate(0,0)"/>
<path d="" fill="#676969" transform="translate(0,0)"/>
<path d="" fill="#696B6C" transform="translate(0,0)"/>
<path d="" fill="#6F7271" transform="translate(0,0)"/>
<path d="" fill="#727372" transform="translate(0,0)"/>
<path d="" fill="#727475" transform="translate(0,0)"/>
<path d="" fill="#6C7071" transform="translate(0,0)"/>
<path d="" fill="#6A6D6D" transform="translate(0,0)"/>
<path d="" fill="#68696B" transform="translate(0,0)"/>
<path d="" fill="#6F6F71" transform="translate(0,0)"/>
<path d="" fill="#6B6D6E" transform="translate(0,0)"/>
<path d="" fill="#676A69" transform="translate(0,0)"/>
<path d="" fill="#666A6B" transform="translate(0,0)"/>
<path d="" fill="#6A6D6C" transform="translate(0,0)"/>
<path d="" fill="#6C6F6E" transform="translate(0,0)"/>
<path d="" fill="#6E7071" transform="translate(0,0)"/>
<path d="" fill="#6F7173" transform="translate(0,0)"/>
<path d="" fill="#717475" transform="translate(0,0)"/>
<path d="" fill="#737677" transform="translate(0,0)"/>
<path d="" fill="#666769" transform="translate(0,0)"/>
<path d="" fill="#67696C" transform="translate(0,0)"/>
<path d="" fill="#686A6A" transform="translate(0,0)"/>
<path d="" fill="#6C6D6E" transform="translate(0,0)"/>
<path d="" fill="#707373" transform="translate(0,0)"/>
<path d="" fill="#717273" transform="translate(0,0)"/>
<path d="" fill="#747677" transform="translate(0,0)"/>
<path d="" fill="#66696A" transform="translate(0,0)"/>
<path d="" fill="#66686B" transform="translate(0,0)"/>
<path d="" fill="#727575" transform="translate(0,0)"/>
<path d="" fill="#656969" transform="translate(0,0)"/>
<path d="" fill="#656A69" transform="translate(0,0)"/>
<path d="" fill="#686B6B" transform="translate(0,0)"/>
<path d="" fill="#6C6F70" transform="translate(0,0)"/>
<path d="" fill="#707372" transform="translate(0,0)"/>
<path d="" fill="#717373" transform="translate(0,0)"/>
<path d="" fill="#707273" transform="translate(0,0)"/>
<path d="" fill="#6A6D6D" transform="translate(0,0)"/>
<path d="" fill="#67696A" transform="translate(0,0)"/>
<path d="" fill="#666869" transform="translate(0,0)"/>
<path d="" fill="#676B6B" transform="translate(0,0)"/>
<path d="" fill="#696A6B" transform="translate(0,0)"/>
<path d="" fill="#66696A" transform="translate(0,0)"/>
<path d="" fill="#676B6A" transform="translate(0,0)"/>
<path d="" fill="#6A6B6D" transform="translate(0,0)"/>
<path d="" fill="#6A6C6C" transform="translate(0,0)"/>
<path d="" fill="#6A6C6D" transform="translate(0,0)"/>
<path d="" fill="#6E7072" transform="translate(0,0)"/>
<path d="" fill="#737473" transform="translate(0,0)"/>
<path d="" fill="#747778" transform="translate(0,0)"/>
<path d="" fill="#767879" transform="translate(0,0)"/>
<path d="" fill="#6C6D6D" transform="translate(0,0)"/>
<path d="" fill="#686969" transform="translate(0,0)"/>
<path d="" fill="#69686B" transform="translate(0,0)"/>
<path d="" fill="#6A6C6D" transform="translate(0,0)"/>
<path d="" fill="#6D6F70" transform="translate(0,0)"/>
<path d="" fill="#757979" transform="translate(0,0)"/>
<path d="" fill="#787A79" transform="translate(0,0)"/>
<path d="" fill="#76797B" transform="translate(0,0)"/>
<path d="" fill="#68686A" transform="translate(0,0)"/>
<path d="" fill="#6C6D6F" transform="translate(0,0)"/>
<path d="" fill="#727576" transform="translate(0,0)"/>
<path d="" fill="#757879" transform="translate(0,0)"/>
<path d="" fill="#747676" transform="translate(0,0)"/>
<path d="" fill="#676869" transform="translate(0,0)"/>
<path d="" fill="#66696A" transform="translate(0,0)"/>
<path d="" fill="#676A6A" transform="translate(0,0)"/>
<path d="" fill="#676A6A" transform="translate(0,0)"/>
<path d="" fill="#696A6C" transform="translate(0,0)"/>
<path d="" fill="#6A6C6D" transform="translate(0,0)"/>
<path d="" fill="#6A6E6C" transform="translate(0,0)"/>
<path d="" fill="#6D6E6E" transform="translate(0,0)"/>
<path d="" fill="#706F71" transform="translate(0,0)"/>
<path d="" fill="#6F7271" transform="translate(0,0)"/>
<path d="" fill="#6F7273" transform="translate(0,0)"/>
<path d="" fill="#6F7173" transform="translate(0,0)"/>
<path d="" fill="#757676" transform="translate(0,0)"/>
<path d="" fill="#747677" transform="translate(0,0)"/>
<path d="" fill="#757775" transform="translate(0,0)"/>
<path d="" fill="#7A7C7C" transform="translate(0,0)"/>
<path d="" fill="#7C7F80" transform="translate(0,0)"/>
<path d="" fill="#777A7A" transform="translate(0,0)"/>
<path d="" fill="#686A6A" transform="translate(0,0)"/>
<path d="" fill="#737576" transform="translate(0,0)"/>
<path d="" fill="#67696A" transform="translate(0,0)"/>
<path d="" fill="#696B6B" transform="translate(0,0)"/>
<path d="" fill="#696C6B" transform="translate(0,0)"/>
<path d="" fill="#6A6D6C" transform="translate(0,0)"/>
<path d="" fill="#6C6D6E" transform="translate(0,0)"/>
<path d="" fill="#6C6D6E" transform="translate(0,0)"/>
<path d="" fill="#6B6E6F" transform="translate(0,0)"/>
<path d="" fill="#6E6F70" transform="translate(0,0)"/>
<path d="" fill="#707072" transform="translate(0,0)"/>
<path d="" fill="#717473" transform="translate(0,0)"/>
<path d="" fill="#7B7E7F" transform="translate(0,0)"/>
<path d="" fill="#7F7F82" transform="translate(0,0)"/>
<path d="" fill="#7E8281" transform="translate(0,0)"/>
<path d="" fill="#7C7F7F" transform="translate(0,0)"/>
<path d="" fill="#7B7C7E" transform="translate(0,0)"/>
<path d="" fill="#707373" transform="translate(0,0)"/>
<path d="" fill="#6E6F70" transform="translate(0,0)"/>
<path d="" fill="#6D7070" transform="translate(0,0)"/>
<path d="" fill="#6D6F6F" transform="translate(0,0)"/>
<path d="" fill="#686B6B" transform="translate(0,0)"/>
<path d="" fill="#69696B" transform="translate(0,0)"/>
<path d="" fill="#696B6B" transform="translate(0,0)"/>
<path d="" fill="#6A6C6D" transform="translate(0,0)"/>
<path d="" fill="#76787B" transform="translate(0,0)"/>
<path d="" fill="#797B7C" transform="translate(0,0)"/>
<path d="" fill="#6D6E70" transform="translate(0,0)"/>
<path d="" fill="#6B6D6E" transform="translate(0,0)"/>
<path d="" fill="#6C7071" transform="translate(0,0)"/>
<path d="" fill="#787A79" transform="translate(0,0)"/>
<path d="" fill="#7E7F81" transform="translate(0,0)"/>
<path d="" fill="#797A7A" transform="translate(0,0)"/>
<path d="" fill="#777777" transform="translate(0,0)"/>
<path d="" fill="#7B7D7D" transform="translate(0,0)"/>
<path d="" fill="#717274" transform="translate(0,0)"/>
<path d="" fill="#777979" transform="translate(0,0)"/>
<path d="" fill="#7F8081" transform="translate(0,0)"/>
<path d="" fill="#737677" transform="translate(0,0)"/>
<path d="" fill="#6E7170" transform="translate(0,0)"/>
<path d="" fill="#727676" transform="translate(0,0)"/>
<path d="" fill="#717373" transform="translate(0,0)"/>
<path d="" fill="#6B7071" transform="translate(0,0)"/>
<path d="" fill="#6D6F70" transform="translate(0,0)"/>
<path d="" fill="#7B7C7D" transform="translate(0,0)"/>
<path d="" fill="#8A8C8E" transform="translate(0,0)"/>
<path d="" fill="#717374" transform="translate(0,0)"/>
<path d="" fill="#6C6F6D" transform="translate(0,0)"/>
<path d="" fill="#6A6D6E" transform="translate(0,0)"/>
<path d="" fill="#6B6C6E" transform="translate(0,0)"/>
<path d="" fill="#6B6D6F" transform="translate(0,0)"/>
<path d="" fill="#6A6D6F" transform="translate(0,0)"/>
<path d="" fill="#6C706E" transform="translate(0,0)"/>
<path d="" fill="#6F7071" transform="translate(0,0)"/>
<path d="" fill="#717573" transform="translate(0,0)"/>
<path d="" fill="#767A7A" transform="translate(0,0)"/>
<path d="" fill="#898B8D" transform="translate(0,0)"/>
<path d="" fill="#757879" transform="translate(0,0)"/>
<path d="" fill="#747476" transform="translate(0,0)"/>
<path d="" fill="#6C6E6E" transform="translate(0,0)"/>
<path d="" fill="#6D6F70" transform="translate(0,0)"/>
<path d="" fill="#7C7C7E" transform="translate(0,0)"/>
<path d="" fill="#808285" transform="translate(0,0)"/>
<path d="" fill="#6F7374" transform="translate(0,0)"/>
<path d="" fill="#7F8183" transform="translate(0,0)"/>
<path d="" fill="#8B8C8C" transform="translate(0,0)"/>
<path d="" fill="#888A8B" transform="translate(0,0)"/>
<path d="" fill="#7A7C7D" transform="translate(0,0)"/>
<path d="" fill="#6B6E6E" transform="translate(0,0)"/>
<path d="" fill="#6F7272" transform="translate(0,0)"/>
<path d="" fill="#8E8E90" transform="translate(0,0)"/>
<path d="" fill="#8A8B8C" transform="translate(0,0)"/>
<path d="" fill="#6A6C6D" transform="translate(0,0)"/>
<path d="" fill="#7E8080" transform="translate(0,0)"/>
<path d="" fill="#818385" transform="translate(0,0)"/>
<path d="" fill="#7D7F80" transform="translate(0,0)"/>
<path d="" fill="#7D8181" transform="translate(0,0)"/>
<path d="" fill="#6B7070" transform="translate(0,0)"/>
<path d="" fill="#808284" transform="translate(0,0)"/>
<path d="" fill="#838584" transform="translate(0,0)"/>
<path d="" fill="#7E8181" transform="translate(0,0)"/>
<path d="" fill="#6E706E" transform="translate(0,0)"/>
<path d="" fill="#717373" transform="translate(0,0)"/>
<path d="" fill="#797B7C" transform="translate(0,0)"/>
<path d="" fill="#7C7E7E" transform="translate(0,0)"/>
<path d="" fill="#868888" transform="translate(0,0)"/>
<path d="" fill="#6D6F71" transform="translate(0,0)"/>
<path d="" fill="#6F7274" transform="translate(0,0)"/>
<path d="" fill="#707275" transform="translate(0,0)"/>
<path d="" fill="#737677" transform="translate(0,0)"/>
<path d="" fill="#6D6F71" transform="translate(0,0)"/>
<path d="" fill="#6F7474" transform="translate(0,0)"/>
<path d="" fill="#8D9191" transform="translate(0,0)"/>
<path d="" fill="#999B9C" transform="translate(0,0)"/>
<path d="" fill="#9B9D9E" transform="translate(0,0)"/>
<path d="" fill="#848788" transform="translate(0,0)"/>
<path d="" fill="#818483" transform="translate(0,0)"/>
<path d="" fill="#818384" transform="translate(0,0)"/>
<path d="" fill="#929595" transform="translate(0,0)"/>
<path d="" fill="#717374" transform="translate(0,0)"/>
<path d="" fill="#727475" transform="translate(0,0)"/>
<path d="" fill="#6E716F" transform="translate(0,0)"/>
<path d="" fill="#808284" transform="translate(0,0)"/>
<path d="" fill="#787B7C" transform="translate(0,0)"/>
<path d="" fill="#717272" transform="translate(0,0)"/>
<path d="" fill="#6F7271" transform="translate(0,0)"/>
<path d="" fill="#7A7C7C" transform="translate(0,0)"/>
<path d="" fill="#8C8D8E" transform="translate(0,0)"/>
<path d="" fill="#747879" transform="translate(0,0)"/>
<path d="" fill="#989B9B" transform="translate(0,0)"/>
<path d="" fill="#727575" transform="translate(0,0)"/>
<path d="" fill="#848586" transform="translate(0,0)"/>
<path d="" fill="#747676" transform="translate(0,0)"/>
<path d="" fill="#767878" transform="translate(0,0)"/>
<path d="" fill="#7A7D7D" transform="translate(0,0)"/>
<path d="" fill="#B5B6B8" transform="translate(0,0)"/>
<path d="" fill="#9EA2A2" transform="translate(0,0)"/>
<path d="" fill="#8D9091" transform="translate(0,0)"/>
<path d="" fill="#808484" transform="translate(0,0)"/>
<path d="" fill="#757978" transform="translate(0,0)"/>
<path d="" fill="#797A7E" transform="translate(0,0)"/>
<path d="" fill="#A4A7A7" transform="translate(0,0)"/>
<path d="" fill="#F5F7F7" transform="translate(0,0)"/>
<path d="" fill="#757A79" transform="translate(0,0)"/>
<path d="" fill="#7D7F80" transform="translate(0,0)"/>
<path d="" fill="#777A7C" transform="translate(0,0)"/>
<path d="" fill="#7A7D7F" transform="translate(0,0)"/>
<path d="" fill="#767878" transform="translate(0,0)"/>
<path d="" fill="#76787A" transform="translate(0,0)"/>
<path d="" fill="#F6F8F8" transform="translate(0,0)"/>
<path d="" fill="#797D7D" transform="translate(0,0)"/>
<path d="" fill="#7B7B7D" transform="translate(0,0)"/>
<path d="" fill="#878A8A" transform="translate(0,0)"/>
<path d="" fill="#898C8B" transform="translate(0,0)"/>
<path d="" fill="#FCFCFC" transform="translate(0,0)"/>
<path d="" fill="#78797A" transform="translate(0,0)"/>
<path d="" fill="#797C7B" transform="translate(0,0)"/>
<path d="" fill="#F7F7F9" transform="translate(0,0)"/>
<path d="" fill="#FEFEFF" transform="translate(0,0)"/>
<path d="" fill="#A8ABAC" transform="translate(0,0)"/>
<path d="" fill="#777879" transform="translate(0,0)"/>
<path d="" fill="#7A7D7D" transform="translate(0,0)"/>
<path d="" fill="#76797A" transform="translate(0,0)"/>
<path d="" fill="#7A7E7E" transform="translate(0,0)"/>
<path d="" fill="#FBFBFA" transform="translate(0,0)"/>
<path d="" fill="#FAFAFB" transform="translate(0,0)"/>
<path d="" fill="#FAFCFC" transform="translate(0,0)"/>
<path d="" fill="#FAFBFC" transform="translate(0,0)"/>
<path d="" fill="#7A7C7C" transform="translate(0,0)"/>
<path d="" fill="#777A7C" transform="translate(0,0)"/>
<path d="" fill="#7A7E7D" transform="translate(0,0)"/>
<path d="" fill="#797B7C" transform="translate(0,0)"/>
<path d="" fill="#7D7D80" transform="translate(0,0)"/>
<path d="" fill="#818384" transform="translate(0,0)"/>
<path d="" fill="#A1A3A3" transform="translate(0,0)"/>
<path d="" fill="#8C8D8F" transform="translate(0,0)"/>
<path d="" fill="#FDFBFC" transform="translate(0,0)"/>
<path d="" fill="#777A7B" transform="translate(0,0)"/>
<path d="" fill="#797A7C" transform="translate(0,0)"/>
<path d="" fill="#939798" transform="translate(0,0)"/>
<path d="" fill="#7A7C7C" transform="translate(0,0)"/>
<path d="" fill="#7D7C7F" transform="translate(0,0)"/>
<path d="" fill="#797D7D" transform="translate(0,0)"/>
<path d="" fill="#7C807E" transform="translate(0,0)"/>
<path d="" fill="#979899" transform="translate(0,0)"/>
<path d="" fill="#828385" transform="translate(0,0)"/>
<path d="" fill="#7A7A7B" transform="translate(0,0)"/>
<path d="" fill="#797C7D" transform="translate(0,0)"/>
<path d="" fill="#FDFDFE" transform="translate(0,0)"/>
<path d="" fill="#F9FAFD" transform="translate(0,0)"/>
<path d="" fill="#FAFCFC" transform="translate(0,0)"/>
<path d="" fill="#F5F6F6" transform="translate(0,0)"/>
<path d="" fill="#7C7F7E" transform="translate(0,0)"/>
<path d="" fill="#FBFCFE" transform="translate(0,0)"/>
<path d="" fill="#ADAEB1" transform="translate(0,0)"/>
<path d="" fill="#7A7C7D" transform="translate(0,0)"/>
<path d="" fill="#FBFAFC" transform="translate(0,0)"/>
<path d="" fill="#FCFDFE" transform="translate(0,0)"/>
<path d="" fill="#7B7D7D" transform="translate(0,0)"/>
<path d="" fill="#FDFDFE" transform="translate(0,0)"/>
<path d="" fill="#7C8180" transform="translate(0,0)"/>
<path d="" fill="#8A8D8C" transform="translate(0,0)"/>
<path d="" fill="#929698" transform="translate(0,0)"/>
<path d="" fill="#FDFDFF" transform="translate(0,0)"/>
<path d="" fill="#FCFFFF" transform="translate(0,0)"/>
<path d="" fill="#FDFEFF" transform="translate(0,0)"/>
<path d="" fill="#FDFEFD" transform="translate(0,0)"/>
<path d="" fill="#7A7B7C" transform="translate(0,0)"/>
<path d="" fill="#FDFEFF" transform="translate(0,0)"/>
<path d="" fill="#FBFEFF" transform="translate(0,0)"/>
<path d="" fill="#FDFFFE" transform="translate(0,0)"/>
<path d="" fill="#FCFCFD" transform="translate(0,0)"/>
<path d="" fill="#7A7A7D" transform="translate(0,0)"/>
<path d="" fill="#7B7C7D" transform="translate(0,0)"/>
<path d="" fill="#8C8D8F" transform="translate(0,0)"/>
<path d="" fill="#F8F8FB" transform="translate(0,0)"/>
<path d="" fill="#7B7F7F" transform="translate(0,0)"/>
<path d="" fill="#85888A" transform="translate(0,0)"/>
<path d="" fill="#FCFDFF" transform="translate(0,0)"/>
<path d="" fill="#FBFCFC" transform="translate(0,0)"/>
<path d="" fill="#7B7D7C" transform="translate(0,0)"/>
<path d="" fill="#FBFDFD" transform="translate(0,0)"/>
<path d="" fill="#7B7E7F" transform="translate(0,0)"/>
<path d="" fill="#7D7E7F" transform="translate(0,0)"/>
<path d="" fill="#7A7C7C" transform="translate(0,0)"/>
<path d="" fill="#F8FBFB" transform="translate(0,0)"/>
<path d="" fill="#999D9D" transform="translate(0,0)"/>
<path d="" fill="#FCFDFE" transform="translate(0,0)"/>
<path d="" fill="#F9FCFD" transform="translate(0,0)"/>
<path d="" fill="#F9FCFC" transform="translate(0,0)"/>
<path d="" fill="#F9FBFB" transform="translate(0,0)"/>
<path d="" fill="#FBFDFC" transform="translate(0,0)"/>
<path d="" fill="#FDFDFF" transform="translate(0,0)"/>
<path d="" fill="#FCFDFF" transform="translate(0,0)"/>
<path d="" fill="#F9F8FB" transform="translate(0,0)"/>
<path d="" fill="#8E9191" transform="translate(0,0)"/>
<path d="" fill="#7E8180" transform="translate(0,0)"/>
<path d="" fill="#828283" transform="translate(0,0)"/>
<path d="" fill="#7C7F81" transform="translate(0,0)"/>
<path d="" fill="#F3F3F6" transform="translate(0,0)"/>
<path d="" fill="#FDFDFF" transform="translate(0,0)"/>
<path d="" fill="#818384" transform="translate(0,0)"/>
<path d="" fill="#FBFDFB" transform="translate(0,0)"/>
<path d="" fill="#838584" transform="translate(0,0)"/>
<path d="" fill="#7B7D7D" transform="translate(0,0)"/>
<path d="" fill="#FCFEFF" transform="translate(0,0)"/>
<path d="" fill="#7C7E7E" transform="translate(0,0)"/>
<path d="" fill="#818586" transform="translate(0,0)"/>
<path d="" fill="#949797" transform="translate(0,0)"/>
<path d="" fill="#F6F6F9" transform="translate(0,0)"/>
<path d="" fill="#FAFCFC" transform="translate(0,0)"/>
<path d="" fill="#FCFCFE" transform="translate(0,0)"/>
<path d="" fill="#838484" transform="translate(0,0)"/>
<path d="" fill="#F6F6F7" transform="translate(0,0)"/>
<path d="" fill="#7A7C7E" transform="translate(0,0)"/>
<path d="" fill="#7C7E7E" transform="translate(0,0)"/>
<path d="" fill="#F9FCFD" transform="translate(0,0)"/>
<path d="" fill="#949798" transform="translate(0,0)"/>
<path d="" fill="#828385" transform="translate(0,0)"/>
<path d="" fill="#FDFFFF" transform="translate(0,0)"/>
<path d="" fill="#FCFCFB" transform="translate(0,0)"/>
<path d="" fill="#F8FAFB" transform="translate(0,0)"/>
<path d="" fill="#F9FCFC" transform="translate(0,0)"/>
<path d="" fill="#7D7E81" transform="translate(0,0)"/>
<path d="" fill="#FAFDFC" transform="translate(0,0)"/>
<path d="" fill="#919496" transform="translate(0,0)"/>
<path d="" fill="#7C8080" transform="translate(0,0)"/>
<path d="" fill="#868A8A" transform="translate(0,0)"/>
<path d="" fill="#838484" transform="translate(0,0)"/>
<path d="" fill="#F8F9F9" transform="translate(0,0)"/>
<path d="" fill="#A7A9AB" transform="translate(0,0)"/>
<path d="" fill="#7D7E80" transform="translate(0,0)"/>
<path d="" fill="#858788" transform="translate(0,0)"/>
<path d="" fill="#7D7D7F" transform="translate(0,0)"/>
<path d="" fill="#F9FAFB" transform="translate(0,0)"/>
<path d="" fill="#F8FAFA" transform="translate(0,0)"/>
<path d="" fill="#FBFBFC" transform="translate(0,0)"/>
<path d="" fill="#7B7E7F" transform="translate(0,0)"/>
<path d="" fill="#868A8A" transform="translate(0,0)"/>
<path d="" fill="#909294" transform="translate(0,0)"/>
<path d="" fill="#FCFBFD" transform="translate(0,0)"/>
<path d="" fill="#868987" transform="translate(0,0)"/>
<path d="" fill="#FBFCFD" transform="translate(0,0)"/>
<path d="" fill="#FCFDFD" transform="translate(0,0)"/>
<path d="" fill="#FCFBFE" transform="translate(0,0)"/>
<path d="" fill="#FBFAFB" transform="translate(0,0)"/>
<path d="" fill="#828284" transform="translate(0,0)"/>
<path d="" fill="#7C7E7F" transform="translate(0,0)"/>
<path d="" fill="#FCFCFD" transform="translate(0,0)"/>
<path d="" fill="#F9F9FB" transform="translate(0,0)"/>
<path d="" fill="#FCFDFD" transform="translate(0,0)"/>
<path d="" fill="#7F8382" transform="translate(0,0)"/>
<path d="" fill="#FAFCFB" transform="translate(0,0)"/>
<path d="" fill="#A7A9A9" transform="translate(0,0)"/>
<path d="" fill="#FCFCFC" transform="translate(0,0)"/>
<path d="" fill="#FBFCFC" transform="translate(0,0)"/>
<path d="" fill="#7E8180" transform="translate(0,0)"/>
<path d="" fill="#ECEFF0" transform="translate(0,0)"/>
<path d="" fill="#FBFCFC" transform="translate(0,0)"/>
<path d="" fill="#F8FAFB" transform="translate(0,0)"/>
<path d="" fill="#FCFDFE" transform="translate(0,0)"/>
<path d="" fill="#FDFFFF" transform="translate(0,0)"/>
<path d="" fill="#F8F9FA" transform="translate(0,0)"/>
<path d="" fill="#FDFFFE" transform="translate(0,0)"/>
<path d="" fill="#F9FBFB" transform="translate(0,0)"/>
<path d="" fill="#828485" transform="translate(0,0)"/>
<path d="" fill="#EBEEEE" transform="translate(0,0)"/>
<path d="" fill="#7A7C7E" transform="translate(0,0)"/>
<path d="" fill="#F9FBFB" transform="translate(0,0)"/>
<path d="" fill="#FBFBFC" transform="translate(0,0)"/>
<path d="" fill="#FDFCFE" transform="translate(0,0)"/>
<path d="" fill="#FBFCFB" transform="translate(0,0)"/>
<path d="" fill="#FAFAFC" transform="translate(0,0)"/>
<path d="" fill="#FAFBFB" transform="translate(0,0)"/>
<path d="" fill="#E8ECEC" transform="translate(0,0)"/>
<path d="" fill="#7D817F" transform="translate(0,0)"/>
<path d="" fill="#818383" transform="translate(0,0)"/>
<path d="" fill="#858889" transform="translate(0,0)"/>
<path d="" fill="#FAFDFB" transform="translate(0,0)"/>
<path d="" fill="#F1F4F3" transform="translate(0,0)"/>
<path d="" fill="#828283" transform="translate(0,0)"/>
<path d="" fill="#838586" transform="translate(0,0)"/>
<path d="" fill="#FBFDFE" transform="translate(0,0)"/>
<path d="" fill="#F8FAFB" transform="translate(0,0)"/>
<path d="" fill="#F6F7F7" transform="translate(0,0)"/>
<path d="" fill="#F9FBFB" transform="translate(0,0)"/>
<path d="" fill="#F9F9FC" transform="translate(0,0)"/>
<path d="" fill="#FBFFFE" transform="translate(0,0)"/>
<path d="" fill="#FAFAFC" transform="translate(0,0)"/>
<path d="" fill="#7E8082" transform="translate(0,0)"/>
<path d="" fill="#FAFDFC" transform="translate(0,0)"/>
<path d="" fill="#FBFCFD" transform="translate(0,0)"/>
<path d="" fill="#FBFCFD" transform="translate(0,0)"/>
<path d="" fill="#FCFCFE" transform="translate(0,0)"/>
<path d="" fill="#7E8181" transform="translate(0,0)"/>
<path d="" fill="#FCFDFF" transform="translate(0,0)"/>
<path d="" fill="#F9FCFA" transform="translate(0,0)"/>
<path d="" fill="#7F8081" transform="translate(0,0)"/>
<path d="" fill="#F7F8F9" transform="translate(0,0)"/>
<path d="" fill="#97999A" transform="translate(0,0)"/>
<path d="" fill="#808282" transform="translate(0,0)"/>
<path d="" fill="#FBFDFE" transform="translate(0,0)"/>
<path d="" fill="#828485" transform="translate(0,0)"/>
<path d="" fill="#78797B" transform="translate(0,0)"/>
<path d="" fill="#7F8080" transform="translate(0,0)"/>
<path d="" fill="#777A7B" transform="translate(0,0)"/>
<path d="" fill="#747879" transform="translate(0,0)"/>
<path d="" fill="#797A7B" transform="translate(0,0)"/>
<path d="" fill="#6E7174" transform="translate(0,0)"/>
<path d="" fill="#707172" transform="translate(0,0)"/>
<path d="" fill="#8F9193" transform="translate(0,0)"/>
<path d="" fill="#787A7B" transform="translate(0,0)"/>
<path d="" fill="#AAABAD" transform="translate(0,0)"/>
<path d="" fill="#AFAFB0" transform="translate(0,0)"/>
<path d="" fill="#9FA1A0" transform="translate(0,0)"/>
<path d="" fill="#707374" transform="translate(0,0)"/>
<path d="" fill="#6F7274" transform="translate(0,0)"/>
<path d="" fill="#747678" transform="translate(0,0)"/>
<path d="" fill="#808283" transform="translate(0,0)"/>
<path d="" fill="#707273" transform="translate(0,0)"/>
<path d="" fill="#747878" transform="translate(0,0)"/>
<path d="" fill="#777A7A" transform="translate(0,0)"/>
<path d="" fill="#818384" transform="translate(0,0)"/>
<path d="" fill="#727277" transform="translate(0,0)"/>
<path d="" fill="#6B6E6E" transform="translate(0,0)"/>
<path d="" fill="#8E8F90" transform="translate(0,0)"/>
<path d="" fill="#6C6F70" transform="translate(0,0)"/>
<path d="" fill="#747577" transform="translate(0,0)"/>
<path d="" fill="#7E807F" transform="translate(0,0)"/>
<path d="" fill="#86878A" transform="translate(0,0)"/>
<path d="" fill="#747777" transform="translate(0,0)"/>
<path d="" fill="#6E7071" transform="translate(0,0)"/>
<path d="" fill="#6B6D6E" transform="translate(0,0)"/>
<path d="" fill="#6C6D6F" transform="translate(0,0)"/>
<path d="" fill="#6B6E6F" transform="translate(0,0)"/>
<path d="" fill="#6C6E6F" transform="translate(0,0)"/>
<path d="" fill="#828485" transform="translate(0,0)"/>
<path d="" fill="#7E8081" transform="translate(0,0)"/>
<path d="" fill="#747677" transform="translate(0,0)"/>
<path d="" fill="#6A6C6F" transform="translate(0,0)"/>
<path d="" fill="#919294" transform="translate(0,0)"/>
<path d="" fill="#7B7C7D" transform="translate(0,0)"/>
<path d="" fill="#686B6B" transform="translate(0,0)"/>
<path d="" fill="#6E6F70" transform="translate(0,0)"/>
<path d="" fill="#6F7071" transform="translate(0,0)"/>
<path d="" fill="#767778" transform="translate(0,0)"/>
<path d="" fill="#818486" transform="translate(0,0)"/>
<path d="" fill="#88888A" transform="translate(0,0)"/>
<path d="" fill="#7C7E7F" transform="translate(0,0)"/>
<path d="" fill="#78797A" transform="translate(0,0)"/>
<path d="" fill="#6C6E6E" transform="translate(0,0)"/>
<path d="" fill="#808282" transform="translate(0,0)"/>
<path d="" fill="#696A6A" transform="translate(0,0)"/>
<path d="" fill="#737475" transform="translate(0,0)"/>
<path d="" fill="#757978" transform="translate(0,0)"/>
<path d="" fill="#868889" transform="translate(0,0)"/>
<path d="" fill="#8A8D8D" transform="translate(0,0)"/>
<path d="" fill="#6D6E70" transform="translate(0,0)"/>
<path d="" fill="#7A7D7D" transform="translate(0,0)"/>
<path d="" fill="#767779" transform="translate(0,0)"/>
<path d="" fill="#6B6B6D" transform="translate(0,0)"/>
<path d="" fill="#6C6D6E" transform="translate(0,0)"/>
<path d="" fill="#6D7271" transform="translate(0,0)"/>
<path d="" fill="#7B7C7E" transform="translate(0,0)"/>
<path d="" fill="#707273" transform="translate(0,0)"/>
<path d="" fill="#6F7174" transform="translate(0,0)"/>
<path d="" fill="#737476" transform="translate(0,0)"/>
<path d="" fill="#686B6C" transform="translate(0,0)"/>
<path d="" fill="#686A6C" transform="translate(0,0)"/>
<path d="" fill="#898A8A" transform="translate(0,0)"/>
<path d="" fill="#828484" transform="translate(0,0)"/>
<path d="" fill="#6F7172" transform="translate(0,0)"/>
<path d="" fill="#666A6B" transform="translate(0,0)"/>
<path d="" fill="#6C7071" transform="translate(0,0)"/>
<path d="" fill="#797A7C" transform="translate(0,0)"/>
<path d="" fill="#88898B" transform="translate(0,0)"/>
<path d="" fill="#6B6D6D" transform="translate(0,0)"/>
<path d="" fill="#696C6B" transform="translate(0,0)"/>
<path d="" fill="#686B6C" transform="translate(0,0)"/>
<path d="" fill="#828385" transform="translate(0,0)"/>
<path d="" fill="#6A6C6C" transform="translate(0,0)"/>
<path d="" fill="#7C7D81" transform="translate(0,0)"/>
<path d="" fill="#686A6A" transform="translate(0,0)"/>
<path d="" fill="#6C6E6F" transform="translate(0,0)"/>
<path d="" fill="#707172" transform="translate(0,0)"/>
<path d="" fill="#727474" transform="translate(0,0)"/>
<path d="" fill="#777A79" transform="translate(0,0)"/>
<path d="" fill="#7F8081" transform="translate(0,0)"/>
<path d="" fill="#818383" transform="translate(0,0)"/>
<path d="" fill="#828385" transform="translate(0,0)"/>
<path d="" fill="#808282" transform="translate(0,0)"/>
<path d="" fill="#777879" transform="translate(0,0)"/>
<path d="" fill="#747777" transform="translate(0,0)"/>
<path d="" fill="#727476" transform="translate(0,0)"/>
<path d="" fill="#707372" transform="translate(0,0)"/>
<path d="" fill="#6D6F71" transform="translate(0,0)"/>
<path d="" fill="#696B6C" transform="translate(0,0)"/>
<path d="" fill="#68696B" transform="translate(0,0)"/>
<path d="" fill="#6A6D6C" transform="translate(0,0)"/>
<path d="" fill="#7C7E80" transform="translate(0,0)"/>
<path d="" fill="#838485" transform="translate(0,0)"/>
<path d="" fill="#77797A" transform="translate(0,0)"/>
</svg>
